<?xml version="1.0" encoding="utf-8"?>
<!-- Generator: Adobe Illustrator 27.5.0, SVG Export Plug-In . SVG Version: 6.00 Build 0)  -->
<svg version="1.1" xmlns="http://www.w3.org/2000/svg" xmlns:xlink="http://www.w3.org/1999/xlink" x="0px" y="0px"
	 viewBox="0 0 500 500" style="enable-background:new 0 0 500 500;" xml:space="preserve">
<g id="BACKGROUND">
	<rect style="fill:#FFFFFF;" width="500" height="500"/>
</g>
<g id="OBJECTS">
	<path style="fill:#4879C1;" d="M475.117,427.193H41.338c-2.292,0-4.167-1.875-4.167-4.167l0,0c0-2.292,1.875-4.167,4.167-4.167
		h433.779c2.292,0,4.167,1.875,4.167,4.167l0,0C479.283,425.318,477.408,427.193,475.117,427.193z"/>
	<g>
		<path style="fill:#DEF8FF;" d="M47.433,247.712c4.261-26.66,17.91-53.171,41.455-66.382c13.282-7.453,28.824-10.272,41.862-18.143
			c20.573-12.421,31.998-35.41,48.887-52.506c20.505-20.758,49.784-32.553,78.952-31.807c29.168,0.746,57.806,14.022,77.224,35.8
			c11.94,13.392,20.789,30.025,35.762,39.911c11.381,7.515,25.115,10.311,38.07,14.573c12.955,4.261,26.22,10.863,32.744,22.839
			c12.941,23.753-6.943,53.173-1.802,79.729c2.893,14.945,13.494,27.456,16.807,42.313c5.451,24.449-10.857,49.756-32.71,62
			c-21.853,12.245-47.928,14.055-72.977,13.834c-86.791-0.766-171.875-22.44-255.955-43.977
			c-16.083-4.12-41.117-8.566-46.195-26.727C43.53,297.616,43.933,269.613,47.433,247.712z"/>
		<path style="fill:#FFF1E1;" d="M463.384,418.889c9.897-23.083,6.217-51.706-9.792-71.178c-6.194-7.535-14.043-13.82-18.799-22.335
			c-4.757-8.516-5.106-20.426,0.863-28.14c9.025-11.663,18.222-23.65,22.659-37.715c4.437-14.064,3.203-30.867-6.886-41.624
			c-6.574-7.008-16.063-10.706-22.713-17.642c-15.064-15.712-10.641-40.979-15.333-62.234
			c-7.024-31.818-39.022-56.139-71.559-54.391c-31.99,1.719-59.896,25.126-91.913,26.231c-23.772,0.82-47.677-1.613-71.394,0.186
			c-21.351,1.619-41.778,12.93-54.481,30.167c-12.703,17.237-13.951,37.85-13.229,59.25c0.515,15.286-9.948,28.852-21.844,38.465
			c-11.897,9.613-25.756,16.826-36.493,27.719c-20.37,20.665-26.59,52.605-20.504,80.976c5.916,27.581,22.154,52.02,41.849,72.265
			H463.384z"/>
		<path style="fill:#FCFCFC;" d="M140.732,224.533c-2.31-3.072-6.568-4.525-10.274-3.507c1.114-6.181,0.662-12.916-2.747-18.19
			c-3.41-5.274-10.262-8.574-16.215-6.572c-4.664,1.569-7.929,5.994-9.316,10.715c-1.387,4.722-1.173,9.752-0.781,14.657
			c-3.679-2.888-9.284-2.997-13.074-0.257c-1.341,0.97-2.538,2.399-3.455,4.035c-15.946-1.529-19.893,9.506-19.893,9.506H83.48
			h58.68C144.166,231.642,143.042,227.605,140.732,224.533z"/>
		<path style="fill:#FCFCFC;" d="M408.242,126.885c-2.31-3.072-6.568-4.526-10.274-3.507c1.114-6.181,0.662-12.916-2.747-18.19
			c-3.41-5.274-10.262-8.575-16.215-6.573c-4.664,1.569-7.929,5.994-9.316,10.715c-1.387,4.722-1.173,9.752-0.781,14.657
			c-3.679-2.888-9.284-2.998-13.074-0.257c-1.341,0.97-2.538,2.399-3.455,4.035c-15.946-1.529-19.893,9.506-19.893,9.506h18.503
			h58.68C411.676,133.994,410.551,129.956,408.242,126.885z"/>
		<path style="fill:#FCFCFC;" d="M467.797,358.592c-2.31-3.072-6.568-4.525-10.274-3.507c1.114-6.181,0.662-12.916-2.747-18.19
			c-3.41-5.274-10.262-8.574-16.215-6.572c-4.664,1.569-7.929,5.994-9.316,10.715c-1.387,4.722-1.173,9.752-0.781,14.657
			c-3.679-2.888-9.284-2.998-13.074-0.257c-1.341,0.97-2.538,2.399-3.455,4.035c-15.946-1.529-19.893,9.506-19.893,9.506h18.503
			h58.68C471.231,365.701,470.106,361.664,467.797,358.592z"/>
		<path style="fill:#FCFCFC;" d="M162.784,138.681c-2.31-3.072-6.568-4.525-10.274-3.507c1.114-6.181,0.662-12.916-2.747-18.19
			c-3.41-5.274-10.262-8.575-16.215-6.573c-4.664,1.569-7.929,5.994-9.316,10.715s-1.173,9.751-0.781,14.657
			c-3.679-2.888-9.284-2.998-13.074-0.257c-1.341,0.97-2.537,2.399-3.455,4.035c-15.946-1.529-19.893,9.506-19.893,9.506h18.503
			h58.68C166.218,145.791,165.094,141.753,162.784,138.681z"/>
		<g>
			<g>
				<path style="fill:#C2E1FF;" d="M51.788,339.798c2.295,2.695,4.895,5.189,6.585,8.299c1.689,3.11,2.319,7.095,0.5,10.132
					c-1.824,3.044-5.572,4.384-7.844,7.111c-4.501,5.401-1.502,13.887,3.431,18.896c4.934,5.009,11.517,8.323,15.794,13.903
					c1.664,2.171,2.931,5.233,1.481,7.552c-1.08,1.728-3.271,2.367-4.78,3.737c-2.129,1.934-2.65,5.181-1.982,7.978
					c0.121,0.506,0.275,1,0.456,1.484h86.627c1.505-7.548,2.217-15.255,2.11-22.951c-0.04-2.875-0.212-5.828-1.391-8.451
					c-1.179-2.623-3.575-4.877-6.441-5.108c-2.031-0.164-4.156,0.668-6.067-0.041c-2.564-0.952-3.431-4.151-3.438-6.886
					c-0.02-7.031,3.17-13.675,4.019-20.654c0.849-6.979-1.958-15.531-8.821-17.06c-3.464-0.772-7.25,0.455-10.554-0.842
					c-3.294-1.294-5.229-4.834-5.79-8.328c-0.561-3.495-0.025-7.058,0.147-10.593c0.222-4.555-0.204-9.274-2.304-13.322
					c-2.099-4.048-6.13-7.308-10.685-7.51c-2.665-0.118-5.323,0.783-7.971,0.461c-4.323-0.525-7.59-4.139-9.907-7.826
					c-2.317-3.687-4.212-7.803-7.609-10.527c-2.91-2.334-7.088-3.811-10.891-3.072c-4.762,0.925-6.804,5.14-7.851,9.458
					c-1.026,4.232-0.014,8.649,0.402,12.983c0.416,4.335,0.035,9.191-3.067,12.247c-1.9,1.872-4.556,2.781-6.594,4.502
					c-3.484,2.942-4.686,7.984-3.877,12.472C46.287,332.328,48.831,336.326,51.788,339.798z"/>
				<g>
					<path style="fill:#FCFCFC;" d="M112.556,418.889h3.832c-3.662-11.043-7.726-23.138-12.044-35.809
						c-17.545-51.489-32.598-92.946-33.621-92.597c-1.024,0.349,12.369,42.371,29.914,93.86
						C104.802,396.567,108.826,408.222,112.556,418.889z"/>
				</g>
				<path style="fill:#FCFCFC;" d="M61.397,320.64c-1.773-0.424-3.675-0.621-5.392-0.005c-1.716,0.615-3.178,2.219-3.145,4.042
					c0.034,1.866,1.578,3.408,3.292,4.148c1.714,0.74,3.615,0.879,5.444,1.254c3.667,0.751,7.125,2.494,9.908,4.996
					c1.653,1.486,3.501,3.38,5.683,2.957c1.61-0.312-1.549-7.866-4.917-10.987C69.207,324.206,65.399,321.596,61.397,320.64z"/>
				<path style="fill:#FCFCFC;" d="M68.783,370.783c-1.773-0.424-3.675-0.621-5.392-0.005c-1.716,0.615-3.178,2.219-3.145,4.042
					c0.034,1.866,1.578,3.408,3.292,4.148c1.714,0.74,3.615,0.879,5.444,1.254c3.667,0.751,7.125,2.494,9.909,4.996
					c1.653,1.486,3.501,3.38,5.683,2.957c1.61-0.312-1.549-7.866-4.917-10.987C76.593,374.348,72.785,371.739,68.783,370.783z"/>
				<path style="fill:#FCFCFC;" d="M95.029,418.889c-2.112-1.421-4.402-2.562-6.761-3.126c-1.773-0.424-3.676-0.621-5.392-0.005
					c-1.423,0.51-2.668,1.701-3.034,3.131H95.029z"/>
				<path style="fill:#FCFCFC;" d="M96.631,308.634c1.146-1.418,2.532-2.736,4.267-3.297c1.735-0.561,3.872-0.183,4.959,1.281
					c1.113,1.499,0.832,3.663-0.074,5.295c-0.905,1.632-2.326,2.904-3.546,4.317c-2.445,2.833-4.119,6.326-4.796,10.007
					c-0.402,2.186-0.709,4.814-2.695,5.812c-1.465,0.736-3.576-7.175-2.815-11.704C92.623,316.226,94.046,311.835,96.631,308.634z"
					/>
				<path style="fill:#FCFCFC;" d="M121.399,352.854c1.145-1.418,2.532-2.736,4.266-3.297c1.735-0.561,3.872-0.183,4.959,1.281
					c1.113,1.499,0.831,3.663-0.074,5.295c-0.906,1.632-2.326,2.904-3.546,4.317c-2.445,2.833-4.119,6.326-4.796,10.007
					c-0.402,2.186-0.709,4.814-2.695,5.812c-1.465,0.736-3.576-7.175-2.815-11.704C117.391,360.446,118.814,356.054,121.399,352.854
					z"/>
				<path style="fill:#FCFCFC;" d="M134.079,418.889c0.056-0.309,0.109-0.616,0.164-0.914c0.677-3.681,2.351-7.173,4.796-10.007
					c1.219-1.413,2.64-2.685,3.546-4.317c0.906-1.632,1.187-3.796,0.074-5.295c-1.087-1.464-3.224-1.841-4.959-1.281
					c-1.735,0.561-3.121,1.878-4.267,3.297c-2.585,3.201-4.008,7.592-4.7,11.711c-0.33,1.96-0.12,4.553,0.341,6.806H134.079z"/>
			</g>
			<g>
				<path style="fill:#C2E1FF;" d="M369.278,418.889c0.181-0.484,0.335-0.978,0.456-1.484c0.668-2.797,0.147-6.045-1.982-7.978
					c-1.509-1.37-3.699-2.009-4.78-3.737c-1.45-2.319-0.183-5.382,1.481-7.552c4.277-5.58,10.861-8.894,15.794-13.903
					c4.934-5.009,7.933-13.495,3.431-18.896c-2.272-2.727-6.019-4.066-7.844-7.111c-1.819-3.036-1.19-7.021,0.5-10.132
					c1.689-3.11,4.29-5.604,6.585-8.299c2.957-3.471,5.501-7.469,6.31-11.957c0.809-4.488-0.392-9.53-3.877-12.472
					c-2.038-1.721-4.693-2.631-6.594-4.502c-3.102-3.056-3.483-7.912-3.067-12.247c0.416-4.335,1.429-8.752,0.402-12.983
					c-1.047-4.318-3.089-8.534-7.851-9.458c-3.803-0.738-7.981,0.738-10.891,3.072c-3.397,2.725-5.292,6.841-7.609,10.527
					c-2.317,3.687-5.584,7.301-9.907,7.826c-2.648,0.322-5.306-0.579-7.971-0.461c-4.555,0.202-8.586,3.462-10.685,7.51
					c-2.099,4.048-2.526,8.768-2.304,13.322c0.172,3.535,0.709,7.098,0.147,10.593c-0.561,3.495-2.496,7.035-5.79,8.328
					c-3.304,1.297-7.089,0.07-10.554,0.842c-6.862,1.529-9.669,10.081-8.821,17.06c0.848,6.979,4.039,13.623,4.019,20.654
					c-0.008,2.735-0.874,5.934-3.438,6.886c-1.91,0.709-4.035-0.123-6.067,0.041c-2.866,0.231-5.262,2.485-6.441,5.108
					c-1.179,2.623-1.351,5.576-1.391,8.451c-0.107,7.696,0.605,15.403,2.11,22.951H369.278z"/>
				<g>
					<path style="fill:#FCFCFC;" d="M322.152,418.889c3.73-10.667,7.753-22.322,11.919-34.546
						c17.545-51.489,30.938-93.511,29.914-93.86c-1.024-0.349-16.076,41.108-33.621,92.597
						c-4.317,12.671-8.383,24.765-12.044,35.809H322.152z"/>
				</g>
				<path style="fill:#FCFCFC;" d="M373.31,320.64c1.773-0.424,3.676-0.621,5.392-0.005c1.716,0.615,3.178,2.219,3.145,4.042
					c-0.034,1.866-1.578,3.408-3.292,4.148c-1.714,0.74-3.615,0.879-5.444,1.254c-3.666,0.751-7.125,2.494-9.908,4.996
					c-1.653,1.486-3.501,3.38-5.683,2.957c-1.61-0.312,1.549-7.866,4.917-10.987C365.501,324.206,369.309,321.596,373.31,320.64z"/>
				<path style="fill:#FCFCFC;" d="M365.924,370.783c1.773-0.424,3.676-0.621,5.392-0.005c1.716,0.615,3.178,2.219,3.145,4.042
					c-0.034,1.866-1.578,3.408-3.292,4.148c-1.714,0.74-3.615,0.879-5.444,1.254c-3.667,0.751-7.125,2.494-9.909,4.996
					c-1.653,1.486-3.501,3.38-5.683,2.957c-1.61-0.312,1.549-7.866,4.917-10.987C358.115,374.348,361.923,371.739,365.924,370.783z"
					/>
				<path style="fill:#FCFCFC;" d="M354.866,418.889c-0.366-1.431-1.611-2.621-3.034-3.131c-1.716-0.615-3.618-0.418-5.392,0.005
					c-2.359,0.564-4.65,1.704-6.762,3.126H354.866z"/>
				<path style="fill:#FCFCFC;" d="M338.077,308.634c-1.145-1.418-2.532-2.736-4.267-3.297c-1.735-0.561-3.872-0.183-4.959,1.281
					c-1.113,1.499-0.831,3.663,0.074,5.295c0.905,1.632,2.326,2.904,3.546,4.317c2.445,2.833,4.119,6.326,4.796,10.007
					c0.402,2.186,0.709,4.814,2.695,5.812c1.465,0.736,3.576-7.175,2.815-11.704C342.085,316.226,340.662,311.835,338.077,308.634z"
					/>
				<path style="fill:#FCFCFC;" d="M313.309,352.854c-1.145-1.418-2.532-2.736-4.267-3.297c-1.735-0.561-3.872-0.183-4.959,1.281
					c-1.113,1.499-0.832,3.663,0.074,5.295c0.905,1.632,2.326,2.904,3.546,4.317c2.445,2.833,4.119,6.326,4.796,10.007
					c0.402,2.186,0.709,4.814,2.695,5.812c1.465,0.736,3.576-7.175,2.815-11.704C317.316,360.446,315.894,356.054,313.309,352.854z"
					/>
				<path style="fill:#FCFCFC;" d="M295.668,407.968c2.445,2.833,4.119,6.326,4.796,10.007c0.055,0.298,0.108,0.605,0.164,0.914
					h5.005c0.461-2.252,0.671-4.845,0.341-6.806c-0.692-4.119-2.115-8.51-4.7-11.711c-1.146-1.418-2.532-2.736-4.267-3.297
					c-1.735-0.561-3.872-0.183-4.959,1.281c-1.113,1.499-0.832,3.663,0.074,5.295C293.028,405.284,294.448,406.555,295.668,407.968z
					"/>
			</g>
		</g>
		<g>
			<path style="fill:#FCFCFC;" d="M363.427,269.53c-2.31-3.072-6.568-4.525-10.274-3.507c1.114-6.181,0.662-12.916-2.747-18.19
				c-3.41-5.274-10.262-8.575-16.215-6.573c-4.664,1.569-7.929,5.994-9.316,10.715c-1.387,4.722-1.173,9.752-0.781,14.657
				c-3.679-2.888-9.284-2.998-13.074-0.257c-1.341,0.97-2.538,2.399-3.455,4.035c-15.946-1.529-19.893,9.506-19.893,9.506h18.503
				h58.68C366.861,276.639,365.737,272.601,363.427,269.53z"/>
			<path style="fill:#4879C1;" d="M279.583,95.186H149.395c-7.813,0-14.148,6.334-14.148,14.147v295.408
				c0,7.813,6.334,14.147,14.148,14.147h130.188c7.813,0,14.147-6.334,14.147-14.147V109.333
				C293.73,101.52,287.396,95.186,279.583,95.186z"/>
			<path style="fill:#C2E1FF;" d="M278.25,109.885H150.727c-4.188,0-7.584,3.395-7.584,7.584V400.58
				c0,6.066,4.917,10.983,10.983,10.983h120.725c6.066,0,10.983-4.917,10.983-10.983V117.469
				C285.834,113.28,282.439,109.885,278.25,109.885z"/>
			<path style="fill:#FFFFFF;" d="M242.694,106.241h-41.769c-1.138,0-2.069-0.931-2.069-2.069v-0.403
				c0-1.138,0.931-2.069,2.069-2.069h41.769c1.138,0,2.069,0.931,2.069,2.069v0.403C244.762,105.31,243.831,106.241,242.694,106.241
				z"/>
			<path style="fill:#FFFFFF;" d="M192.652,103.971c0,1.455-1.179,2.634-2.634,2.634c-1.455,0-2.634-1.179-2.634-2.634
				c0-1.455,1.179-2.634,2.634-2.634C191.473,101.337,192.652,102.516,192.652,103.971z"/>
			<g>
				<path style="fill:#FFFFFF;" d="M252.651,292.012h-15.963c-6.6,0-12-5.4-12-12v-14.298c0-6.6,5.4-12,12-12h15.963
					c6.6,0,12,5.4,12,12v14.298C264.651,286.612,259.251,292.012,252.651,292.012z"/>
				<path style="fill:#FFFFFF;" d="M252.651,341.966h-15.963c-6.6,0-12-5.4-12-12v-14.298c0-6.6,5.4-12,12-12h15.963
					c6.6,0,12,5.4,12,12v14.298C264.651,336.566,259.251,341.966,252.651,341.966z"/>
				<path style="fill:#FFFFFF;" d="M252.651,391.919h-15.963c-6.6,0-12-5.4-12-12v-14.298c0-6.6,5.4-12,12-12h15.963
					c6.6,0,12,5.4,12,12v14.298C264.651,386.52,259.251,391.919,252.651,391.919z"/>
				<path style="fill:#75ACEF;" d="M192.29,341.966h-15.963c-6.6,0-12-5.4-12-12v-14.298c0-6.6,5.4-12,12-12h15.963
					c6.6,0,12,5.4,12,12v14.298C204.29,336.566,198.89,341.966,192.29,341.966z"/>
				<path style="fill:#FFFFFF;" d="M192.29,391.919h-15.963c-6.6,0-12-5.4-12-12v-14.298c0-6.6,5.4-12,12-12h15.963
					c6.6,0,12,5.4,12,12v14.298C204.29,386.52,198.89,391.919,192.29,391.919z"/>
			</g>
			<g>
				<g>
					<path style="fill:#FFFFFF;" d="M152.147,220.567v16.363c0,1.739,1.41,3.148,3.148,3.148h15.757v-19.511H152.147z"/>
					<rect x="172.447" y="220.567" style="fill:#FFFFFF;" width="20.475" height="19.511"/>
					<rect x="152.147" y="171.915" style="fill:#FFFFFF;" width="18.906" height="22.806"/>
					<rect x="194.316" y="220.567" style="fill:#FFFFFF;" width="20.475" height="19.511"/>
					<path style="fill:#FFFFFF;" d="M171.053,147.167h-15.757c-1.739,0-3.148,1.41-3.148,3.149v20.079h18.906V147.167z"/>
					<rect x="216.185" y="220.567" style="fill:#FFFFFF;" width="20.475" height="19.511"/>
					<rect x="238.054" y="147.167" style="fill:#67C2F4;" width="20.475" height="23.228"/>
					<rect x="238.054" y="220.567" style="fill:#FFFFFF;" width="20.475" height="19.511"/>
					<path style="fill:#FFFFFF;" d="M277.886,170.395v-20.079c0-1.739-1.41-3.149-3.148-3.149h-14.814v23.228H277.886z"/>
					<rect x="194.316" y="147.167" style="fill:#FFFFFF;" width="20.475" height="23.228"/>
					<rect x="172.447" y="147.167" style="fill:#FFFFFF;" width="20.475" height="23.228"/>
					<rect x="216.185" y="147.167" style="fill:#FFFFFF;" width="20.475" height="23.228"/>
					<rect x="152.147" y="196.241" style="fill:#FFFFFF;" width="18.906" height="22.806"/>
					<rect x="216.185" y="171.915" style="fill:#FFFFFF;" width="20.475" height="22.806"/>
					<rect x="194.316" y="171.915" style="fill:#FFFFFF;" width="20.475" height="22.806"/>
					<path style="fill:#FFFFFF;" d="M259.923,240.078h14.814c1.739,0,3.148-1.41,3.148-3.148v-16.363h-17.963V240.078z"/>
					<rect x="238.054" y="171.915" style="fill:#FFFFFF;" width="20.475" height="22.806"/>
					<rect x="238.054" y="196.241" style="fill:#FFFFFF;" width="20.475" height="22.806"/>
					<rect x="216.185" y="196.241" style="fill:#FFFFFF;" width="20.475" height="22.806"/>
					<rect x="259.923" y="196.241" style="fill:#FFFFFF;" width="17.963" height="22.806"/>
					<rect x="172.447" y="196.241" style="fill:#FFFFFF;" width="20.475" height="22.806"/>
					<rect x="194.316" y="196.241" style="fill:#FFFFFF;" width="20.475" height="22.806"/>
					<rect x="172.447" y="171.915" style="fill:#FFFFFF;" width="20.475" height="22.806"/>
					<rect x="259.923" y="171.915" style="fill:#FFFFFF;" width="17.963" height="22.806"/>
					<rect x="214.791" y="240.078" style="fill:#C2E1FF;" width="1.394" height="7.636"/>
					<rect x="147.501" y="219.047" style="fill:#C2E1FF;" width="4.645" height="1.52"/>
					<rect x="171.053" y="240.078" style="fill:#C2E1FF;" width="1.394" height="7.636"/>
					<rect x="277.886" y="219.047" style="fill:#C2E1FF;" width="4.955" height="1.52"/>
					<rect x="147.501" y="194.721" style="fill:#C2E1FF;" width="4.645" height="1.52"/>
					<rect x="236.66" y="240.078" style="fill:#C2E1FF;" width="1.394" height="7.636"/>
					<rect x="277.886" y="194.721" style="fill:#C2E1FF;" width="4.955" height="1.52"/>
					<rect x="258.529" y="240.078" style="fill:#C2E1FF;" width="1.394" height="7.636"/>
					<rect x="192.922" y="240.078" style="fill:#C2E1FF;" width="1.394" height="7.636"/>
					<rect x="258.529" y="144.38" style="fill:#C2E1FF;" width="1.394" height="2.787"/>
					<rect x="147.501" y="170.395" style="fill:#C2E1FF;" width="4.645" height="1.52"/>
					<rect x="277.886" y="170.395" style="fill:#C2E1FF;" width="4.955" height="1.52"/>
					<rect x="236.66" y="144.38" style="fill:#C2E1FF;" width="1.394" height="2.787"/>
					<rect x="214.791" y="144.38" style="fill:#C2E1FF;" width="1.394" height="2.787"/>
					<rect x="171.053" y="144.38" style="fill:#C2E1FF;" width="1.394" height="2.787"/>
					<rect x="192.922" y="144.38" style="fill:#C2E1FF;" width="1.394" height="2.787"/>
					<path style="fill:#C2E1FF;" d="M259.923,171.915h17.963v-1.52h-17.963v-23.228h-1.394v23.228h-20.475v-23.228h-1.394v23.228
						h-20.475v-23.228h-1.394v23.228h-20.475v-23.228h-1.394v23.228h-20.475v-23.228h-1.394v23.228h-18.906v1.52h18.906v22.805
						h-18.906v1.52h18.906v22.806h-18.906v1.52h18.906v19.511h1.394v-19.511h20.475v19.511h1.394v-19.511h20.475v19.511h1.394
						v-19.511h20.475v19.511h1.394v-19.511h20.475v19.511h1.394v-19.511h17.963v-1.52h-17.963v-22.806h17.963v-1.52h-17.963V171.915
						z M192.922,219.047h-20.475v-22.806h20.475V219.047z M192.922,194.721h-20.475v-22.805h20.475V194.721z M214.791,219.047
						h-20.475v-22.806h20.475V219.047z M214.791,194.721h-20.475v-22.805h20.475V194.721z M236.66,219.047h-20.475v-22.806h20.475
						V219.047z M236.66,194.721h-20.475v-22.805h20.475V194.721z M258.529,219.047h-20.475v-22.806h20.475V219.047z
						 M258.529,194.721h-20.475v-22.805h20.475V194.721z"/>
				</g>
				<g>
					<path style="fill:#F78181;" d="M249.427,164.875l-7.808-7.71c-0.621-0.613-0.627-1.613-0.014-2.233
						c0.613-0.62,1.613-0.627,2.233-0.014l5.182,5.117l15.573-21.623c0.51-0.708,1.497-0.868,2.204-0.359
						c0.708,0.51,0.868,1.497,0.359,2.204L249.427,164.875z"/>
				</g>
				<text transform="matrix(1 0 0 1 155.2936 153.2327)" style="fill:#4893C1; font-family:'ActionMan'; font-size:5.4845px;">1</text>
				<text transform="matrix(1 0 0 1 177.1803 152.886)" style="fill:#4893C1; font-family:'ActionMan'; font-size:5.4845px;">2</text>
				<text transform="matrix(1 0 0 1 198.5485 153.2327)" style="fill:#4893C1; font-family:'ActionMan'; font-size:5.4845px;">3</text>
				<text transform="matrix(1 0 0 1 220.0885 152.7122)" style="fill:#4893C1; font-family:'ActionMan'; font-size:5.4845px;">4</text>
				<text transform="matrix(1 0 0 1 241.8024 153.2327)" style="fill:#4893C1; font-family:'ActionMan'; font-size:5.4845px;">5</text>
				<text transform="matrix(1 0 0 1 263.2809 153.2327)" style="fill:#4893C1; font-family:'ActionMan'; font-size:5.4845px;">6</text>
				<text transform="matrix(1 0 0 1 155.2936 178.1556)" style="fill:#4893C1; font-family:'ActionMan'; font-size:5.4845px;">7</text>
				<text transform="matrix(1 0 0 1 177.1803 177.8089)" style="fill:#4893C1; font-family:'ActionMan'; font-size:5.4845px;">8</text>
				<text transform="matrix(1 0 0 1 198.5485 178.1556)" style="fill:#4893C1; font-family:'ActionMan'; font-size:5.4845px;">9</text>
				<text transform="matrix(1 0 0 1 220.0885 177.636)" style="fill:#4893C1; font-family:'ActionMan'; font-size:5.4845px;">10</text>
				<text transform="matrix(1 0 0 1 241.8024 178.1556)" style="fill:#4893C1; font-family:'ActionMan'; font-size:5.4845px;">11</text>
				<text transform="matrix(1 0 0 1 263.2809 178.1556)" style="fill:#4893C1; font-family:'ActionMan'; font-size:5.4845px;">12</text>
				<text transform="matrix(1 0 0 1 155.2936 202.1302)" style="fill:#4893C1; font-family:'ActionMan'; font-size:5.4845px;">13</text>
				<text transform="matrix(1 0 0 1 177.1803 201.7835)" style="fill:#4893C1; font-family:'ActionMan'; font-size:5.4845px;">14</text>
				<text transform="matrix(1 0 0 1 198.5485 202.1302)" style="fill:#4893C1; font-family:'ActionMan'; font-size:5.4845px;">15</text>
				<text transform="matrix(1 0 0 1 220.0885 201.6107)" style="fill:#4893C1; font-family:'ActionMan'; font-size:5.4845px;">16</text>
				<text transform="matrix(1 0 0 1 241.8024 202.1302)" style="fill:#4893C1; font-family:'ActionMan'; font-size:5.4845px;">17</text>
				<text transform="matrix(1 0 0 1 263.2809 202.1302)" style="fill:#4893C1; font-family:'ActionMan'; font-size:5.4845px;">18</text>
				<text transform="matrix(1 0 0 1 155.2936 225.7903)" style="fill:#4893C1; font-family:'ActionMan'; font-size:5.4845px;">19</text>
				<text transform="matrix(1 0 0 1 177.1803 225.4437)" style="fill:#4893C1; font-family:'ActionMan'; font-size:5.4845px;">20</text>
				<text transform="matrix(1 0 0 1 198.5485 225.7903)" style="fill:#4893C1; font-family:'ActionMan'; font-size:5.4845px;">21</text>
				<text transform="matrix(1 0 0 1 220.0885 225.2708)" style="fill:#4893C1; font-family:'ActionMan'; font-size:5.4845px;">22</text>
				<text transform="matrix(1 0 0 1 241.8024 225.7903)" style="fill:#4893C1; font-family:'ActionMan'; font-size:5.4845px;">23</text>
				<text transform="matrix(1 0 0 1 263.2809 225.7903)" style="fill:#4893C1; font-family:'ActionMan'; font-size:5.4845px;">24</text>
			</g>
			<path style="fill:#4879C1;" d="M240.557,403.992h-57.816c-1.043,0-1.897-0.853-1.897-1.897v-0.37
				c0-1.043,0.854-1.897,1.897-1.897h57.816c1.043,0,1.897,0.854,1.897,1.897v0.37C242.454,403.138,241.601,403.992,240.557,403.992
				z"/>
			<g>
				<text transform="matrix(1 0 0 1 179.6452 135.473)" style="fill:#FCFCFC; font-family:'ActionMan'; font-size:14.4278px;">SEPTEMBER</text>
				<g>
					<g>
						<path style="fill:#FCFCFC;" d="M174.972,134.585c-0.106,0-0.212-0.035-0.3-0.107l-3.486-2.854
							c-0.329-0.263-0.521-0.66-0.523-1.086c-0.002-0.426,0.187-0.825,0.517-1.095l3.493-2.846c0.203-0.165,0.501-0.135,0.667,0.068
							c0.165,0.203,0.135,0.501-0.068,0.667l-3.493,2.846c-0.107,0.087-0.169,0.217-0.168,0.356
							c0.001,0.139,0.063,0.268,0.171,0.354l3.491,2.857c0.202,0.166,0.232,0.464,0.066,0.667
							C175.245,134.526,175.109,134.585,174.972,134.585z"/>
					</g>
					<g>
						<path style="fill:#FCFCFC;" d="M256.633,135.095c-0.137,0-0.273-0.059-0.367-0.174c-0.166-0.202-0.136-0.501,0.066-0.667
							l3.486-2.854c0.112-0.09,0.175-0.219,0.175-0.357c0.001-0.139-0.061-0.268-0.168-0.356l-3.493-2.846
							c-0.203-0.165-0.233-0.464-0.068-0.667c0.165-0.203,0.464-0.233,0.667-0.068l3.493,2.846c0.331,0.269,0.519,0.668,0.517,1.094
							c-0.002,0.426-0.194,0.824-0.527,1.09l-3.482,2.851C256.845,135.06,256.739,135.095,256.633,135.095z"/>
					</g>
				</g>
			</g>
			<g>
				<g>
					<path style="fill:#FFB088;" d="M343.051,406.212c-1.813,5.591-2.422,4.382-10.123,9.217c-1.47,0.923-4.568,2.419-4.115,4.094
						c0.377,1.391,2.205,1.663,3.646,1.636c5.416-0.1,10.826-0.533,16.188-1.295c1.457-0.207,3.002-0.48,4.09-1.472
						c1.786-1.628,1.618-3.227,0.891-5.532c-3.401-10.778,1.588-27.328,3.647-40.208c-0.063,0.391-7.855,3.668-8.784,4.328
						c-1.783,1.265-3.043,2.41-3.446,4.601C343.876,387.927,345.11,399.866,343.051,406.212z"/>
					<path style="fill:#4879C1;" d="M352.542,406.499c-1.122-0.019-2.269,0.383-3.216,1.014c-1.338,0.892-2.351,2.183-3.326,3.461
						c-0.975,1.279-1.956,2.588-3.254,3.536c-1.298,0.948-2.99,1.498-4.536,1.057c-0.983-0.28-1.837-1.047-2.233-1.969
						c-0.872,0.501-1.877,1.095-3.048,1.83c-1.47,0.923-4.569,2.419-4.115,4.094c0.377,1.391,2.205,1.663,3.646,1.636
						c5.416-0.1,10.826-0.533,16.188-1.295c1.457-0.207,3.002-0.48,4.089-1.472c1.786-1.628,1.618-3.227,0.891-5.532
						C353.013,410.911,352.676,408.771,352.542,406.499z"/>
				</g>
				<g>
					<path style="fill:#FFB088;" d="M409.549,402.923c0.237,5.872-0.753,4.95-6.301,12.154c-1.059,1.375-3.447,3.852-2.441,5.266
						c0.836,1.174,2.645,0.795,3.987,0.271c5.046-1.971,9.97-4.252,14.736-6.825c1.295-0.699,2.649-1.491,3.326-2.798
						c1.111-2.146,0.399-3.588-1.081-5.498c-6.926-8.931-7.982-26.185-10.515-38.979c0.077,0.389-6.096,6.163-6.74,7.104
						c-1.234,1.804-2.019,3.315-1.638,5.51C403.985,385.486,409.28,396.256,409.549,402.923z"/>
					<path style="fill:#4879C1;" d="M418.551,399.903c-1.059,0.371-1.996,1.146-2.665,2.066c-0.946,1.3-1.449,2.862-1.92,4.4
						c-0.471,1.537-0.938,3.105-1.827,4.445c-0.889,1.34-2.286,2.442-3.889,2.564c-1.019,0.078-2.086-0.345-2.777-1.073
						c-0.645,0.772-1.382,1.678-2.225,2.773c-1.059,1.375-3.447,3.852-2.441,5.266c0.836,1.174,2.645,0.795,3.987,0.271
						c5.045-1.971,9.97-4.252,14.736-6.825c1.295-0.699,2.649-1.491,3.326-2.798c1.111-2.146,0.4-3.588-1.081-5.498
						C420.522,403.878,419.464,401.987,418.551,399.903z"/>
				</g>
				<g>
					<path style="fill:#F24E4E;" d="M393.455,295.613c1.193-2.096,1.856-4.422,2.744-6.651c0.752-1.89,1.764-3.838,3.404-5.108
						c1.395-1.08,3.483-1.654,5.146-0.858c0.905,0.433,1.547,1.22,2.051,2.066c0.583,0.976,1.043,2.033,1.479,3.081
						c1.075,2.585,1.917,5.259,2.758,7.927c0.305,0.966,1.83,0.553,1.523-0.42c-0.804-2.549-1.61-5.102-2.616-7.581
						c-0.889-2.189-1.839-4.76-3.883-6.138c-1.893-1.276-4.421-1.035-6.363-0.008c-2.021,1.069-3.406,3.057-4.359,5.079
						c-1.205,2.554-1.845,5.349-3.247,7.813C391.588,295.701,392.952,296.497,393.455,295.613L393.455,295.613z"/>
				</g>
				<path style="fill:#C16C88;" d="M375.027,121.652c-3.07-1.517-6.81-1.61-9.951-0.246c-3.142,1.364-5.627,4.159-6.615,7.438
					c-0.713,2.368-0.696,4.984-1.911,7.137c-0.665,1.178-1.655,2.132-2.5,3.188c-0.846,1.056-1.576,2.305-1.564,3.657
					c0.021,2.207,1.968,3.96,2.333,6.137c0.21,1.249-0.123,2.521-0.496,3.732c-0.373,1.21-0.795,2.437-0.769,3.703
					c0.026,1.266,0.607,2.61,1.751,3.155c0.734,0.35,1.835,0.452,2.573,0.112c0.739-0.34,1.467-0.837,2.279-0.783
					c1.01,0.066,1.793,0.967,2.791,1.136c1.382,0.235,2.579-0.965,3.95-1.26c1.481-0.319,2.98,0.449,4.496,0.452
					c2.54,0.005,4.739-2.113,7.278-2.035c1.678,0.051,3.264,1.07,4.93,0.87c1.596-0.192,2.925-1.475,4.53-1.564
					c1.648-0.092,3.242,1.101,4.85,0.728c1.008-0.234,1.771-1.034,2.659-1.567c0.887-0.533,2.202-0.721,2.828,0.103
					c1.241-0.634,1.649-2.558,1.192-3.875c-0.456-1.317-1.486-2.338-2.448-3.348c-0.961-1.009-1.922-2.129-2.176-3.499
					c-0.353-1.905,0.741-3.825,0.545-5.753c-0.233-2.289-2.184-3.99-4.107-5.253c-1.923-1.263-4.068-2.45-5.129-4.491
					c-0.848-1.633-0.869-3.587-1.646-5.255c-0.756-1.624-2.241-2.891-3.964-3.382C379.012,120.399,376.525,120.671,375.027,121.652z
					"/>
				<path style="fill:#4879C1;" d="M352.828,225.901c0,0-10.523,71.79-9.348,86.135c1.176,14.345,0.47,72.9,0.47,72.9l18.343-0.47
					c0,0,1.881-53.382,1.411-56.674s10.817-46.327,10.817-46.327s4.938,36.215,9.642,50.089
					c4.703,13.875,12.464,43.505,18.813,52.911c0,0,11.288-2.117,14.345-5.879c0,0-5.409-37.861-12.464-51.736
					c0,0,1.44-69.074-10.45-99.677L352.828,225.901z"/>
				<path style="fill:#FFB088;" d="M401.405,271.935c-1.028,2.899-2.267,5.723-3.703,8.442c-0.277,0.525-0.571,1.097-0.474,1.683
					c0.097,0.586,0.805,1.084,1.295,0.748c-0.287,0.841,0.058,1.703,0.238,2.573c0.18,0.871,1.02,1.671,1.886,1.47
					c0.515-0.12,0.937-0.559,1.465-0.577c0.53-0.018,1.057,0.396,1.552,0.207c0.517-0.197,0.633-0.919,1.111-1.197
					c0.591-0.345,1.335,0.163,2.012,0.063c0.995-0.146,1.31-1.407,1.396-2.409c0.349-4.041,0.697-8.082,1.046-12.123
					C406.746,270.431,403.69,270.893,401.405,271.935z"/>
				<path style="fill:#FFB088;" d="M360.9,134.994c0,0,0.56,3.698,1.457,5.715c0.897,2.017-2.017,7.956,3.362,12.663
					c0,0,2.017,2.241,4.37,2.353l0.56,7.508c0,0,9.413,1.121,11.99-1.681l-3.586-34.626
					C379.053,126.926,363.141,124.012,360.9,134.994z"/>
				<path style="fill:#F29D77;" d="M373.275,157.979c1.696-1.997,2.989-4.298,4.271-6.582c-1.873,2.274-4.584,3.772-7.472,4.343
					l0.381,4.892C371.497,159.872,372.44,158.962,373.275,157.979z"/>
				<path style="fill:#FFB088;" d="M381.967,138.138c1.045-0.503,2.5-0.353,3.109,0.633c0.519,0.841,0.253,1.96-0.264,2.803
					c-0.516,0.842-1.266,1.54-2.142,1.996c-0.543,0.282-1.149,0.474-1.76,0.442c-0.611-0.033-1.227-0.315-1.568-0.824
					C378.118,141.359,380.436,138.874,381.967,138.138z"/>
				<g>
					<g>
						<path style="fill:#F27766;" d="M366.94,138.249c-0.459,1.89-0.808,3.807-1.031,5.739c-0.087,0.757-0.113,1.581,0.597,2.05
							c0.681,0.45,1.518,0.32,2.271,0.176c0.225-0.043,0.164-0.394-0.062-0.351c-0.708,0.135-1.634,0.312-2.2-0.275
							c-0.557-0.578-0.246-1.663-0.152-2.369c0.218-1.631,0.523-3.249,0.911-4.848C367.328,138.152,366.994,138.027,366.94,138.249
							L366.94,138.249z"/>
					</g>
					<g>
						<path style="fill:#684430;" d="M369.192,136.4c1.559-1.166,3.509-1.73,5.45-1.58c0.229,0.018,0.262-0.337,0.034-0.355
							c-2.039-0.157-4.077,0.439-5.714,1.663C368.778,136.266,369.009,136.537,369.192,136.4L369.192,136.4z"/>
					</g>
					<g>
						<path style="fill:#F27766;" d="M367.108,149.399c2.26,0.382,4.604-0.344,6.266-1.919c0.166-0.158-0.109-0.384-0.274-0.228
							c-1.566,1.485-3.805,2.155-5.929,1.796C366.944,149.01,366.882,149.361,367.108,149.399L367.108,149.399z"/>
					</g>
					<g>
						<path style="fill:#F27766;" d="M368.471,150.823c1.14-0.004,2.263-0.413,3.138-1.143c0.175-0.146-0.031-0.437-0.207-0.29
							c-0.833,0.695-1.879,1.075-2.964,1.078C368.209,150.469,368.243,150.823,368.471,150.823L368.471,150.823z"/>
					</g>
					<path style="fill:#684430;" d="M371.285,137.169c-0.426,0.11-0.633,0.733-0.464,1.392c0.17,0.659,0.652,1.105,1.078,0.995
						c0.426-0.11,0.633-0.733,0.464-1.392C372.193,137.505,371.71,137.059,371.285,137.169z"/>
					<g>
						<path style="fill:#684430;" d="M362.076,136.253c1.359-0.324,2.814-0.152,4.052,0.502c0.2,0.106,0.407-0.185,0.204-0.292
							c-1.322-0.699-2.861-0.908-4.318-0.561C361.792,135.955,361.853,136.306,362.076,136.253L362.076,136.253z"/>
					</g>
					<path style="fill:#684430;" d="M363.986,137.961c-0.426,0.11-0.633,0.733-0.464,1.392c0.17,0.659,0.652,1.105,1.078,0.995
						c0.426-0.109,0.633-0.733,0.464-1.392C364.895,138.297,364.412,137.851,363.986,137.961z"/>
				</g>
				<path style="fill:#C16C88;" d="M359.672,135.846c5.079-1.047,9.849-3.551,13.595-7.137c0.694,3.824,2.503,7.399,5.473,9.906
					c0.54,0.456,1.213,0.902,1.9,0.74c0.867-0.204,1.227-1.225,1.391-2.101c0.339-1.807,0.464-3.654,0.373-5.49
					c-0.087-1.761-0.417-3.611-1.56-4.954c-1.499-1.761-4.014-2.23-6.326-2.294c-3.117-0.086-6.296,0.378-9.096,1.749
					c-2.801,1.371-5.195,3.71-6.258,6.641C358.749,134.05,358.96,134.862,359.672,135.846z"/>
				<path style="fill:#FFB088;" d="M289.494,172.64c-0.582-2.867-2.808-5.093-5.077-6.94c-1.423-1.158-2.917-2.249-4.572-3.043
					c-2.31-1.109-4.858-1.605-7.374-2.09c-2.182-0.421-4.424-0.843-6.61-0.445c-0.119,0.512,0.175,1.049,0.591,1.37
					c0.416,0.321,0.935,0.472,1.441,0.616c2.195,0.625,4.391,1.25,6.586,1.875c-1.307,2.139-0.885,5.246,0.528,7.316
					s4.089,3.196,6.557,2.758c1.136,1.04,2.619,2.064,3.997,2.75C287.359,175.942,288.588,174.417,289.494,172.64z"/>
				<g>
					<path style="fill:#FFE8DE;" d="M283.324,171.428c-0.977,0-1.959-0.326-2.717-0.936c-0.99-0.797-1.642-2.061-1.702-3.3
						c-0.002-0.042-0.032-0.06-0.049-0.066c-0.012-0.005-0.056-0.016-0.091,0.022c-0.129,0.14-0.261,0.293-0.395,0.45
						c-0.521,0.607-1.059,1.234-1.665,1.372c-0.505,0.115-1.16,0.073-1.488-0.392c-0.171-0.243-0.228-0.573-0.17-0.979
						c0.166-1.152,1.633-2.714,2.629-3.398c0.072-0.049,0.17-0.031,0.22,0.041c0.049,0.072,0.031,0.17-0.041,0.22
						c-1.069,0.735-2.356,2.223-2.495,3.183c-0.047,0.324-0.008,0.577,0.116,0.752c0.237,0.337,0.754,0.358,1.159,0.266
						c0.505-0.115,1.031-0.729,1.496-1.27c0.137-0.16,0.271-0.316,0.403-0.458c0.11-0.119,0.279-0.16,0.431-0.104
						c0.151,0.055,0.249,0.188,0.257,0.348c0.055,1.134,0.677,2.339,1.585,3.069c1.029,0.828,2.503,1.09,3.755,0.667
						c0.083-0.028,0.172,0.016,0.2,0.099c0.028,0.083-0.016,0.172-0.099,0.2C284.232,171.358,283.778,171.428,283.324,171.428z"/>
				</g>
				<path style="fill:#BADCF7;" d="M386.749,164.617c-0.256-1.096-0.597-2.311-1.571-2.875c-0.666-0.385-1.481-0.37-2.25-0.344
					c-4.253,0.145-8.507,0.29-12.76,0.436c-0.703,0.024-1.443,0.059-2.04,0.432c-0.987,0.618-1.243,1.917-1.408,3.07
					c-7.46,0.386-14.382,2.979-20.723,6.927c-6.341,3.948-11.966,8.928-17.556,13.883c-5.078,4.501-8.689,8.273-13.767,12.774
					c-0.202-1.6-2.433-2.052-3.569-3.197c-1.396-1.407-1.447-3.757-2.828-5.18c-1.106-1.141-2.91-1.509-3.788-2.833
					c-0.867-1.307-0.538-3.12-1.315-4.483c-1.151-2.021-4.115-2.177-5.659-3.915c-0.814-0.917-1.133-2.164-1.774-3.21
					c-0.641-1.045-1.911-1.937-3.039-1.457c-0.717-0.956-1.582-1.911-2.299-2.867c-2.529,1.703-4.989,3.616-7.259,5.651
					c0.503,0.977,0.696,1.882,1.199,2.859c-1.026,1.539-0.044,3.861,0.943,5.425c0.988,1.564,2.355,2.914,3.002,4.647
					c0.816,2.187,0.402,4.781,1.636,6.762c1.551,2.49,5.063,3.019,6.944,5.269c1.864,2.229,1.758,5.698,3.801,7.765
					c0.905,0.916,2.139,1.446,3.067,2.34c1.345,1.297,1.896,3.201,2.968,4.732c1.689,2.414,4.699,3.771,7.643,3.668
					c2.944-0.104,5.766-1.589,7.704-3.808l27.341-24.004c-0.752,3.362,0.364,7.181,2.684,9.727c0.617,0.678,1.362,1.359,1.455,2.271
					c0.113,1.112-0.8,2.099-0.834,3.216c-0.038,1.235,0.988,2.252,1.229,3.464c0.355,1.785-1.042,3.522-0.877,5.335
					c0.118,1.305,1.035,2.453,1.069,3.764c0.023,0.866-0.345,1.689-0.691,2.483c-0.355,0.813-0.703,1.675-0.6,2.559
					c0.105,0.905,0.97,1.676,1.881,1.714c6.707,0.278,12.738,2.961,19.458,2.587c6.817-0.379,13.542-1.705,20.241-3.027
					c0.415-0.783,0.647-1.621,0.334-2.45c-0.313-0.829-0.996-1.511-1.825-1.824c-0.579-0.829-0.426-1.577-0.257-2.529
					c0.171-0.964,0.453-1.905,0.852-2.799c2.441-5.463,4.883-10.925,7.324-16.388c1.006,6.056,1.912,12.418,2.88,18.59
					c0.319,2.036,0.38,4.114,0.041,6.147c-0.47,2.814,0.818,6.092,0.401,9.009c-0.352,2.464-1.816,4.658-2.209,7.116
					c-0.357,2.229,0.192,4.514-0.018,6.762c-0.197,2.104-1.049,4.087-1.494,6.154c-0.574,2.664-0.464,5.421-0.352,8.144
					c0.105,2.55,0.211,5.101,0.316,7.651c0.028,0.672-0.124,1.268-0.208,1.935c3.624,0.636,7.131,1.481,10.755,2.117
					c0.204-1.168,0.06-2.198,0.263-3.365c0.629-3.607,3.186-6.611,4.294-10.101c0.489-1.54,0.977-3.079,1.466-4.619
					c0.606-1.911,0.858-3.908,0.857-5.913c-0.001-1.668,0.654-3.396,1.28-4.995c0.883-2.256,2.098-4.413,2.534-6.796
					c0.846-4.618-1.296-9.651-0.248-14.056c0.411-1.73,0.512-3.518,0.298-5.283c-0.971-8.002-2.586-15.447-4.462-23.448
					c-1.361-5.804-2.762-11.71-5.794-16.843C406.38,170.832,396.684,164.875,386.749,164.617z"/>
				<path style="fill:#F24E4E;" d="M392.153,294.328l21.546-0.591c1.001-0.027,1.831,0.771,1.837,1.773
					c0.012,1.993,0.129,5.048,0.706,6.137c0.885,1.671,5.111,8.354-0.885,12.286c0,0-9.435,2.654-23.49,0
					c0,0-7.096-1.139-2.596-11.19c0.632-1.412,0.973-2.937,1.044-4.482l0.101-2.226
					C390.458,295.098,391.216,294.354,392.153,294.328z"/>
				<g>
					<path style="fill:#F7B2B2;" d="M413.276,297.668c0.029,0.072-0.301,0.283-0.731,0.864c-0.223,0.285-0.465,0.654-0.798,1.087
						c-0.33,0.411-0.681,0.874-1.053,1.412c-0.185,0.268-0.374,0.552-0.567,0.852c-0.188,0.297-0.41,0.635-0.645,0.953
						c-0.474,0.644-1.026,1.297-1.661,1.936c-0.637,0.637-1.36,1.263-2.202,1.807c-0.841,0.536-1.819,1.013-2.955,1.142
						c-0.564,0.065-1.151,0.017-1.694-0.151c-0.551-0.169-1.021-0.445-1.438-0.738c-0.836-0.598-1.486-1.294-2.082-1.948
						c-0.591-0.666-1.127-1.258-1.663-1.845c-0.524-0.585-0.999-1.149-1.405-1.688c-0.406-0.535-0.745-1.062-1.007-1.517
						c-0.266-0.452-0.494-0.831-0.699-1.126c-0.404-0.594-0.724-0.834-0.684-0.906c0.027-0.064,0.467,0.077,1.01,0.633
						c0.272,0.272,0.565,0.636,0.881,1.06c0.313,0.426,0.665,0.878,1.098,1.369c0.428,0.489,0.921,1.007,1.464,1.554
						c0.543,0.537,1.148,1.153,1.739,1.779c0.6,0.62,1.234,1.258,1.959,1.758c0.363,0.248,0.746,0.459,1.139,0.575
						c0.398,0.12,0.826,0.156,1.266,0.106c0.881-0.097,1.736-0.487,2.499-0.961c0.766-0.478,1.455-1.044,2.073-1.625
						c0.617-0.583,1.167-1.182,1.646-1.769c0.243-0.297,0.45-0.576,0.668-0.877c0.217-0.295,0.431-0.575,0.643-0.837
						c0.421-0.523,0.839-0.98,1.211-1.351c0.352-0.365,0.661-0.717,0.945-0.973c0.282-0.259,0.536-0.432,0.725-0.517
						C413.148,297.642,413.262,297.637,413.276,297.668z"/>
				</g>
				<path style="fill:#F7B2B2;" d="M404.492,303.614c0,1.12-0.908,2.027-2.027,2.027c-1.119,0-2.027-0.908-2.027-2.027
					c0-1.119,0.908-2.027,2.027-2.027C403.584,301.587,404.492,302.495,404.492,303.614z"/>
				<g>
					<path style="fill:#FF8A8A;" d="M374.089,263.426c-0.033,0.018-0.117-0.062-0.248-0.233c-0.131-0.171-0.313-0.431-0.509-0.788
						c-0.404-0.707-0.902-1.787-1.323-3.187c-0.425-1.398-0.752-3.113-0.941-5.025c-0.184-1.914-0.246-4.014-0.222-6.216
						c0.044-4.409,0.506-8.384,1.01-11.222c0.506-2.841,1.014-4.554,1.154-4.526c0.32,0.059-1.001,7.046-1.073,15.76
						c-0.024,2.176,0.008,4.252,0.133,6.12c0.131,1.869,0.37,3.537,0.686,4.912C373.38,261.778,374.248,263.341,374.089,263.426z"/>
				</g>
				<g>
					<path style="fill:#FF8A8A;" d="M370.171,241.44c-0.001,0.068-0.177,0.15-0.514,0.143c-0.334-0.005-0.826-0.128-1.337-0.458
						c-0.509-0.329-1.023-0.864-1.385-1.586c-0.364-0.726-0.531-1.59-0.552-2.471c-0.018-0.881,0.093-1.692,0.21-2.405
						c0.121-0.699,0.229-1.329,0.321-1.86c0.174-1.043,0.192-1.705,0.347-1.73c0.142-0.027,0.404,0.651,0.423,1.781
						c0.013,0.561-0.03,1.222-0.093,1.934c-0.062,0.712-0.133,1.475-0.116,2.254c0.018,0.774,0.138,1.496,0.376,2.079
						c0.239,0.586,0.591,1.061,0.942,1.393C369.499,241.192,370.181,241.273,370.171,241.44z"/>
				</g>
				<g>
					<path style="fill:#FF8A8A;" d="M394.293,240.65c-0.036,0.135-0.827,0.125-2.098-0.182c-0.631-0.163-1.394-0.422-2.161-0.919
						c-0.767-0.499-1.473-1.258-1.981-2.161c-0.513-0.902-0.806-1.846-0.966-2.703c-0.161-0.859-0.203-1.634-0.208-2.278
						c0.003-1.289,0.13-2.07,0.275-2.078c0.156-0.008,0.303,0.778,0.494,2.016c0.207,1.227,0.461,2.936,1.353,4.504
						c0.441,0.782,1.001,1.42,1.609,1.877c0.613,0.459,1.268,0.768,1.832,1.012C393.582,240.21,394.336,240.495,394.293,240.65z"/>
				</g>
				<g>
					<path style="fill:#FF8A8A;" d="M351.887,243.203c-0.025-0.072,0.159-0.209,0.506-0.399c0.345-0.192,0.858-0.433,1.45-0.763
						c0.595-0.329,1.243-0.766,1.849-1.389c0.609-0.617,1.172-1.406,1.637-2.311c0.929-1.814,1.298-3.7,1.598-5.054
						c0.286-1.364,0.501-2.219,0.655-2.201c0.145,0.017,0.203,0.892,0.109,2.31c-0.053,0.708-0.148,1.556-0.353,2.489
						c-0.204,0.93-0.522,1.955-1.039,2.956c-0.513,1-1.176,1.877-1.912,2.539c-0.732,0.67-1.538,1.104-2.215,1.361
						c-0.681,0.263-1.244,0.394-1.637,0.466C352.14,243.273,351.911,243.274,351.887,243.203z"/>
				</g>
				<g>
					<path style="fill:#FF8A8A;" d="M359.342,172.662c0.104,0.138-0.877,0.972-2.26,2.478c-0.171,0.19-0.35,0.388-0.537,0.595
						c-0.186,0.207-0.361,0.439-0.554,0.669c-0.392,0.454-0.762,0.977-1.165,1.515c-0.772,1.102-1.555,2.358-2.258,3.741
						c-0.688,1.391-1.224,2.77-1.645,4.048c-0.19,0.645-0.388,1.255-0.516,1.841c-0.069,0.292-0.15,0.571-0.204,0.844
						c-0.054,0.273-0.106,0.536-0.155,0.787c-0.378,2.01-0.459,3.295-0.632,3.294c-0.075,0-0.137-0.321-0.184-0.91
						c-0.01-0.147-0.021-0.311-0.032-0.49c-0.005-0.179,0.002-0.373,0.005-0.583c0.013-0.418,0.012-0.898,0.079-1.421
						c0.029-0.263,0.059-0.538,0.09-0.824c0.034-0.286,0.097-0.58,0.149-0.887c0.095-0.616,0.266-1.258,0.437-1.938
						c0.383-1.347,0.915-2.799,1.633-4.25c0.733-1.444,1.577-2.74,2.427-3.853c0.442-0.544,0.854-1.066,1.291-1.51
						c0.215-0.225,0.412-0.451,0.621-0.65c0.211-0.197,0.413-0.386,0.607-0.566c0.379-0.367,0.764-0.653,1.091-0.914
						c0.166-0.128,0.317-0.25,0.464-0.353c0.151-0.098,0.288-0.187,0.412-0.268C359.003,172.745,359.297,172.602,359.342,172.662z"
						/>
				</g>
				<g>
					<path style="fill:#FF8A8A;" d="M397.872,198.583c-0.067,0.035-0.543-0.733-1.347-2.15c-0.396-0.711-0.879-1.581-1.441-2.59
						c-0.274-0.479-0.608-0.997-1.064-1.289c-0.226-0.142-0.472-0.203-0.725-0.169c-0.252,0.033-0.521,0.178-0.796,0.372
						c-1.155,0.878-2.42,1.84-3.777,2.873c-0.683,0.517-1.389,1.051-2.116,1.601c-0.364,0.275-0.733,0.553-1.108,0.835
						c-0.193,0.142-0.358,0.278-0.598,0.439c-0.12,0.077-0.257,0.156-0.423,0.215c-0.165,0.059-0.368,0.094-0.57,0.072
						c-0.416-0.042-0.722-0.28-0.931-0.487c-0.215-0.216-0.365-0.435-0.51-0.624c-0.296-0.394-0.595-0.793-0.898-1.195
						c-0.604-0.806-1.221-1.63-1.849-2.468c-0.626-0.839-1.264-1.694-1.911-2.56c-0.161-0.217-0.323-0.435-0.486-0.653
						c-0.167-0.224-0.314-0.429-0.469-0.591c-0.153-0.163-0.309-0.272-0.432-0.306c-0.123-0.035-0.24-0.021-0.415,0.061
						c-0.172,0.084-0.362,0.232-0.564,0.403c-0.211,0.178-0.42,0.356-0.629,0.533c-0.418,0.354-0.834,0.706-1.247,1.056
						c-0.826,0.698-1.641,1.386-2.441,2.061c-0.802,0.675-1.59,1.338-2.361,1.987c-0.204,0.167-0.432,0.355-0.745,0.495
						c-0.304,0.146-0.738,0.19-1.082,0.073c-0.347-0.109-0.599-0.301-0.809-0.482c-0.212-0.187-0.376-0.364-0.546-0.532
						c-1.352-1.37-2.636-2.673-3.838-3.892c-0.599-0.611-1.177-1.202-1.733-1.77c-0.284-0.29-0.533-0.559-0.79-0.724
						c-0.262-0.167-0.476-0.207-0.721-0.123c-0.251,0.084-0.51,0.289-0.774,0.508c-0.266,0.22-0.524,0.434-0.776,0.642
						c-0.501,0.419-0.968,0.82-1.403,1.198c-0.869,0.757-1.606,1.423-2.206,1.971c-1.199,1.096-1.862,1.709-1.919,1.655
						c-0.052-0.05,0.506-0.762,1.62-1.957c0.557-0.597,1.256-1.313,2.092-2.118c0.418-0.403,0.871-0.828,1.359-1.271
						c0.245-0.22,0.498-0.446,0.757-0.678c0.26-0.225,0.548-0.501,0.985-0.674c0.215-0.086,0.48-0.125,0.732-0.09
						c0.253,0.034,0.484,0.132,0.678,0.25c0.392,0.239,0.678,0.548,0.959,0.814c0.57,0.553,1.163,1.129,1.778,1.725
						c1.224,1.197,2.532,2.475,3.909,3.82c0.347,0.345,0.676,0.676,0.941,0.746c0.128,0.034,0.219,0.028,0.366-0.036
						c0.144-0.064,0.313-0.192,0.494-0.347c0.765-0.655,1.545-1.324,2.34-2.004c0.796-0.68,1.607-1.372,2.43-2.074
						c0.412-0.35,0.827-0.704,1.244-1.059c0.209-0.178,0.419-0.356,0.629-0.535c0.219-0.184,0.462-0.388,0.79-0.551
						c0.319-0.164,0.785-0.257,1.196-0.128c0.411,0.122,0.699,0.373,0.921,0.605c0.223,0.236,0.393,0.479,0.552,0.691
						c0.162,0.219,0.323,0.437,0.484,0.654c0.642,0.87,1.275,1.728,1.897,2.57c0.621,0.844,1.23,1.673,1.827,2.484
						c0.298,0.406,0.593,0.808,0.884,1.206c0.15,0.204,0.28,0.39,0.409,0.521c0.13,0.134,0.244,0.198,0.315,0.202
						c0.066,0.014,0.186-0.019,0.351-0.124c0.158-0.1,0.363-0.258,0.549-0.392c0.379-0.276,0.753-0.548,1.122-0.816
						c0.738-0.535,1.455-1.055,2.148-1.557c1.395-1.005,2.665-1.93,3.883-2.785c0.324-0.21,0.7-0.416,1.142-0.462
						c0.439-0.048,0.876,0.094,1.194,0.318c0.32,0.224,0.553,0.497,0.743,0.768c0.191,0.272,0.343,0.547,0.476,0.813
						c0.51,1.047,0.935,1.942,1.28,2.682C397.59,197.715,397.939,198.548,397.872,198.583z"/>
				</g>
				<g>
					<path style="fill:#FF8A8A;" d="M399.936,181.732c0.323,0.027,0.025,5.149,0.541,11.422c0.485,6.275,1.591,11.285,1.276,11.363
						c-0.139,0.035-0.596-1.179-1.096-3.21c-0.252-1.014-0.501-2.235-0.727-3.599c-0.219-1.366-0.411-2.875-0.541-4.467
						c-0.124-1.592-0.174-3.113-0.174-4.496c0.007-1.383,0.06-2.628,0.148-3.669C399.535,182.99,399.794,181.719,399.936,181.732z"
						/>
				</g>
				<g>
					<path style="fill:#FF8A8A;" d="M361.712,324.324c0.209,0.217-1.173,1.889-3.087,3.736c-1.914,1.846-3.635,3.167-3.845,2.951
						c-0.209-0.217,1.173-1.889,3.087-3.736C359.782,325.428,361.503,324.108,361.712,324.324z"/>
				</g>
				<g>
					<path style="fill:#FF8A8A;" d="M361.63,330.526c0.21,0.221-1.355,2.048-3.35,4.221c-1.999,2.17-3.688,3.884-3.925,3.693
						c-0.232-0.185,1.096-2.23,3.122-4.431C359.499,331.806,361.426,330.31,361.63,330.526z"/>
				</g>
				<g>
					<path style="fill:#FF8A8A;" d="M394.597,332.076c-0.243-0.178,0.852-2.081,2.445-4.25c1.593-2.169,3.081-3.783,3.324-3.604
						c0.243,0.178-0.852,2.081-2.445,4.25C396.328,330.64,394.839,332.254,394.597,332.076z"/>
				</g>
				<g>
					<path style="fill:#FF8A8A;" d="M396.3,338.445c-0.266-0.115,0.623-2.653,2.518-5.34c1.884-2.696,3.968-4.395,4.166-4.184
						c0.221,0.221-1.455,2.206-3.273,4.811C397.88,336.326,396.583,338.577,396.3,338.445z"/>
				</g>
				<g>
					<path style="fill:#FF8A8A;" d="M291.603,174.91c0.125,0.28-0.763,0.941-1.829,1.725c-1.072,0.776-1.973,1.419-2.201,1.215
						c-0.223-0.193,0.382-1.242,1.558-2.096C290.304,174.894,291.487,174.638,291.603,174.91z"/>
				</g>
				<g>
					<path style="fill:#FF8A8A;" d="M314.021,197.482c0.16-0.033,0.382,0.449,0.819,1.151c0.43,0.711,1.12,1.628,1.872,2.733
						c0.37,0.557,0.702,1.119,0.95,1.67c0.062,0.138,0.112,0.28,0.164,0.413c0.054,0.133,0.099,0.266,0.131,0.401
						c0.034,0.132,0.067,0.26,0.099,0.383c0.022,0.126,0.036,0.25,0.051,0.366c0.038,0.23,0.028,0.446,0.016,0.631
						c-0.006,0.093-0.011,0.178-0.021,0.256c-0.018,0.079-0.036,0.15-0.055,0.213c-0.074,0.253-0.151,0.38-0.226,0.372
						c-0.168-0.019-0.203-0.554-0.468-1.306c-0.033-0.094-0.068-0.192-0.105-0.294c-0.046-0.1-0.093-0.204-0.142-0.311
						c-0.043-0.108-0.098-0.218-0.161-0.329c-0.061-0.112-0.117-0.228-0.183-0.345c-0.268-0.468-0.601-0.974-0.96-1.516
						c-0.361-0.539-0.711-1.073-1-1.581c-0.289-0.51-0.52-0.997-0.663-1.43C313.846,198.092,313.886,197.506,314.021,197.482z"/>
				</g>
				<g>
					<path style="fill:#FF8A8A;" d="M403.784,227.163c0.322,0.015,0.341,2.576,1.326,5.498c0.947,2.934,2.455,5.005,2.206,5.208
						c-0.109,0.09-0.642-0.318-1.305-1.163c-0.333-0.42-0.683-0.956-1.024-1.58c-0.333-0.627-0.653-1.344-0.913-2.123
						c-0.254-0.781-0.424-1.547-0.529-2.25c-0.097-0.704-0.134-1.343-0.117-1.879C403.457,227.801,403.643,227.155,403.784,227.163z
						"/>
				</g>
			</g>
		</g>
		<g>
			<path style="fill:#FFD4D4;" d="M229.229,244.321H119.632c-2.404,0-4.353,1.75-4.353,3.909v104.697
				c0,2.159,1.949,3.909,4.353,3.909h109.597c2.404,0,4.353-1.75,4.353-3.909V248.23
				C233.582,246.071,231.634,244.321,229.229,244.321z"/>
			<path style="fill:#F24E4E;" d="M230.559,286.177H118.377c-0.405,0-0.737-0.332-0.737-0.737v-0.143
				c0-0.405,0.332-0.737,0.737-0.737h112.181c0.405,0,0.737,0.332,0.737,0.737v0.143
				C231.296,285.845,230.964,286.177,230.559,286.177z"/>
			<path style="fill:#F24E4E;" d="M156.082,285.977h-0.186c-0.525,0-0.955-0.43-0.955-0.955v-37.925c0-0.525,0.43-0.955,0.955-0.955
				h0.186c0.525,0,0.955,0.43,0.955,0.955v37.925C157.037,285.547,156.607,285.977,156.082,285.977z"/>
			<path style="fill:#FCFCFC;" d="M220.865,264.628h-56.137c-0.642,0-1.168-0.525-1.168-1.168v-0.227
				c0-0.642,0.525-1.167,1.168-1.167h56.137c0.642,0,1.168,0.525,1.168,1.167v0.227
				C222.033,264.102,221.507,264.628,220.865,264.628z"/>
			<path style="fill:#FCFCFC;" d="M220.865,273.63h-56.137c-0.642,0-1.168-0.525-1.168-1.167v-0.227
				c0-0.642,0.525-1.168,1.168-1.168h56.137c0.642,0,1.168,0.525,1.168,1.168v0.227C222.033,273.105,221.507,273.63,220.865,273.63z
				"/>
			<path style="fill:#FCFCFC;" d="M197.914,256.624h-33.186c-0.642,0-1.168-0.525-1.168-1.168v-0.227
				c0-0.642,0.525-1.168,1.168-1.168h33.186c0.642,0,1.168,0.525,1.168,1.168v0.227
				C199.082,256.099,198.556,256.624,197.914,256.624z"/>
			<circle style="fill:#75ACEF;" cx="125.705" cy="298.906" r="2.679"/>
			<path style="fill:#FCFCFC;" d="M158.621,300.886h-24.367c-1.051,0-1.91-0.86-1.91-1.911v-0.372c0-1.051,0.86-1.911,1.91-1.911
				h24.367c1.051,0,1.911,0.86,1.911,1.911v0.372C160.532,300.026,159.672,300.886,158.621,300.886z"/>
			<path style="fill:#FCFCFC;" d="M185.335,309.273h-51.081c-1.051,0-1.91-0.86-1.91-1.91v-0.372c0-1.051,0.86-1.911,1.91-1.911
				h51.081c1.051,0,1.911,0.86,1.911,1.911v0.372C187.246,308.413,186.386,309.273,185.335,309.273z"/>
			<circle style="fill:#75ACEF;" cx="125.705" cy="333.394" r="2.679"/>
			<path style="fill:#FCFCFC;" d="M158.621,335.374h-24.367c-1.051,0-1.91-0.86-1.91-1.911v-0.372c0-1.051,0.86-1.911,1.91-1.911
				h24.367c1.051,0,1.911,0.86,1.911,1.911v0.372C160.532,334.514,159.672,335.374,158.621,335.374z"/>
			<path style="fill:#FCFCFC;" d="M185.335,343.76h-51.081c-1.051,0-1.91-0.86-1.91-1.91v-0.372c0-1.051,0.86-1.911,1.91-1.911
				h51.081c1.051,0,1.911,0.86,1.911,1.911v0.372C187.246,342.901,186.386,343.76,185.335,343.76z"/>
			<g>
				<path style="fill:#F25353;" d="M146.94,261.164c0-6.259-5.221-11.299-11.545-11.003c-5.721,0.268-10.373,5.059-10.484,10.785
					c-0.066,3.433,1.438,6.517,3.843,8.581c1.247,1.07,2.266,2.384,3.094,3.803c1.41,2.416,2.425,4.974,3.089,6.938
					c0.32,0.947,1.654,0.947,1.975,0c0.651-1.924,1.639-4.42,3.006-6.793c0.856-1.487,1.922-2.859,3.218-3.983
					C145.466,267.471,146.94,264.489,146.94,261.164z"/>
				<path style="fill:#FCFCFC;" d="M141.848,260.974c0,3.271-2.652,5.923-5.923,5.923s-5.923-2.652-5.923-5.923
					c0-3.271,2.652-5.923,5.923-5.923S141.848,257.703,141.848,260.974z"/>
				<path style="fill:#F25353;" d="M138.585,260.974c0,1.469-1.191,2.66-2.66,2.66c-1.469,0-2.66-1.191-2.66-2.66
					c0-1.469,1.191-2.66,2.66-2.66C137.394,258.314,138.585,259.505,138.585,260.974z"/>
			</g>
		</g>
		<g>
			<path style="fill:#C0F2DD;" d="M245.449,153.077c0.34-0.215,0.188-0.741-0.214-0.741h-16.191h-26.719h-81.537
				c-1.789,0-3.239,1.45-3.239,3.239v39.735c0,1.789,1.45,3.239,3.239,3.239h108.256c1.789,0,3.239-1.45,3.239-3.239v-32.367
				c0-0.974,0.5-1.88,1.324-2.4L245.449,153.077z"/>
			<g>
				<path style="fill:#FFB000;" d="M145.936,176.627v-4.445c0-3.356-2.312-6.269-5.58-7.032h0c-1.079-0.252-2.202-0.252-3.282,0h0
					c-3.268,0.763-5.58,3.676-5.58,7.032v4.445c0,1.356-0.479,2.669-1.353,3.706l-1.09,1.295c-0.557,0.661-0.087,1.672,0.778,1.672
					h8.885h8.886c0.865,0,1.335-1.011,0.778-1.672l-1.09-1.295C146.415,179.296,145.936,177.983,145.936,176.627z"/>
				<path style="fill:#FFB000;" d="M142.563,183.195c0,2.125-1.723,3.848-3.848,3.848c-2.125,0-3.848-1.723-3.848-3.848
					c0-2.125,1.723-3.848,3.848-3.848C140.84,179.346,142.563,181.069,142.563,183.195z"/>
			</g>
			<path style="fill:#F78181;" d="M157.168,196.913h-0.099c-0.28,0-0.509-0.229-0.509-0.509v-41.063c0-0.28,0.229-0.509,0.509-0.509
				h0.099c0.28,0,0.509,0.229,0.509,0.509v41.063C157.677,196.684,157.449,196.913,157.168,196.913z"/>
			<path style="fill:#FCFCFC;" d="M198.097,161.662h-34.528c-0.792,0-1.439-0.648-1.439-1.439v-0.28
				c0-0.792,0.648-1.439,1.439-1.439h34.528c0.792,0,1.439,0.648,1.439,1.439v0.28C199.536,161.014,198.888,161.662,198.097,161.662
				z"/>
			<path style="fill:#FCFCFC;" d="M198.097,168.644h-34.528c-0.792,0-1.439-0.648-1.439-1.439v-0.28
				c0-0.792,0.648-1.439,1.439-1.439h34.528c0.792,0,1.439,0.648,1.439,1.439v0.28C199.536,167.997,198.888,168.644,198.097,168.644
				z"/>
			<path style="fill:#FCFCFC;" d="M222.99,180.124h-60.478c-0.346,0-0.629-0.283-0.629-0.629v-0.123
				c0-0.346,0.283-0.629,0.629-0.629h60.478c0.346,0,0.629,0.283,0.629,0.629v0.123C223.619,179.841,223.336,180.124,222.99,180.124
				z"/>
			<path style="fill:#FCFCFC;" d="M222.99,186.337h-60.478c-0.346,0-0.629-0.283-0.629-0.629v-0.122
				c0-0.346,0.283-0.629,0.629-0.629h60.478c0.346,0,0.629,0.283,0.629,0.629v0.122C223.619,186.054,223.336,186.337,222.99,186.337
				z"/>
		</g>
		<g>
			<g>
				<path style="fill:#FDFEFF;" d="M432.082,99.1c-13.497,0.23-24.493,11.286-24.655,24.784c-0.028,2.302,0.255,4.533,0.809,6.655
					c0.115,0.442,0.036,0.912-0.232,1.281l-6.465,8.911c-0.733,1.01,0.015,2.421,1.262,2.383l12.202-0.376
					c0.383-0.012,0.753,0.127,1.043,0.379c4.491,3.914,10.386,6.257,16.831,6.167c13.718-0.19,24.835-11.553,24.739-25.273
					C457.518,110.09,446.082,98.861,432.082,99.1z"/>
				<path style="fill:#79A8E2;" d="M432.525,150.235c-6.296,0-12.356-2.266-17.103-6.403c-0.113-0.099-0.252-0.149-0.391-0.147
					l-12.202,0.376c-0.942,0.03-1.799-0.47-2.24-1.302c-0.441-0.832-0.371-1.822,0.182-2.584l6.465-8.911
					c0.098-0.134,0.127-0.311,0.082-0.486c-0.585-2.243-0.867-4.567-0.839-6.905c0.082-6.776,2.782-13.177,7.603-18.024
					c4.822-4.847,11.208-7.58,17.984-7.696l0,0c7.011-0.12,13.633,2.509,18.646,7.402c5.014,4.895,7.803,11.448,7.852,18.451
					c0.1,14.263-11.417,26.029-25.673,26.227C432.768,150.234,432.646,150.235,432.525,150.235z M415.048,141.79
					c0.591,0,1.164,0.216,1.619,0.613c4.486,3.91,10.238,6.014,16.196,5.934c13.218-0.183,23.897-11.093,23.804-24.318
					c-0.045-6.494-2.631-12.57-7.28-17.108c-4.648-4.537-10.789-6.973-17.29-6.864c-12.926,0.221-23.568,10.918-23.724,23.847
					c-0.026,2.17,0.236,4.325,0.778,6.404c0.189,0.725,0.05,1.482-0.382,2.077l-6.465,8.911c-0.183,0.252-0.09,0.493-0.041,0.585
					c0.049,0.092,0.195,0.305,0.507,0.295l12.202-0.375C414.998,141.79,415.023,141.79,415.048,141.79z"/>
			</g>
			<text transform="matrix(1 0 0 1 415.3893 130.9651)" style="fill:#79A8E2; font-family:'ActionMan'; font-size:18.3251px;">15.33</text>
		</g>
	</g>
</g>
</svg>
